<svg xmlns="http://www.w3.org/2000/svg" version="1.1" xmlns:xlink="http://www.w3.org/1999/xlink" xmlns:svgjs="http://svgjs.dev/svgjs" width="1500" height="1500" viewBox="0 0 1500 1500"><rect width="1500" height="1500" fill="#000000"></rect><g transform="matrix(0.6666666666666666,0,0,0.6666666666666666,249.6435200557504,375.4623655913978)"><svg viewBox="0 0 332 248" data-background-color="#000000" preserveAspectRatio="xMidYMid meet" height="1120" width="1500" xmlns="http://www.w3.org/2000/svg" xmlns:xlink="http://www.w3.org/1999/xlink"><g id="tight-bounds" transform="matrix(1,0,0,1,0.11835134149086457,0.4000000000000057)"><svg viewBox="0 0 331.76329731701827 247.2" height="247.2" width="331.76329731701827"><rect width="331.76329731701827" height="247.2" fill="#ffffff" mask="url(#8f006bd0-fa12-4369-be2f-1107087a6658)" data-fill-palette-color="tertiary"></rect><g><svg viewBox="0 0 395.52 294.7057278206784" height="247.2" width="331.76329731701827"><g transform="matrix(1,0,0,1,0,175.9391754190502)"><svg viewBox="0 0 395.52 118.76655240162822" height="118.76655240162822" width="395.52"><g id="textblocktransform"><svg viewBox="0 0 395.52 118.76655240162822" height="118.76655240162822" width="395.52" id="textblock"><g><svg viewBox="0 0 395.52 118.76655240162822" height="118.76655240162822" width="395.52"><rect width="395.52" height="118.76655240162822" x="0" y="0" opacity="1" fill="#ffffff" data-fill-palette-color="tertiary"></rect><g transform="matrix(1,0,0,1,23.607599999999998,23.607599999999998)"><svg width="348.3048" viewBox="1 -37.35 184.24 37.85" height="71.55135240162822" data-palette-color="#000000"><path d="M20.8-18.55L20.8-18.55 20.8-14.35Q19.65-14.55 18.85-14.68 18.05-14.8 17.13-14.88 16.2-14.95 14.65-14.95L14.65-14.95Q13.45-14.95 12.08-14.9 10.7-14.85 9.05-14.6L9.05-14.6 9.05-18.3Q10.8-18.15 12.08-18.07 13.35-18 14.55-18L14.55-18Q16.1-18 17.05-18.07 18-18.15 18.82-18.28 19.65-18.4 20.8-18.55ZM19.5-22.7L22.25-22.7Q22.2-21.2 22.13-19.73 22.05-18.25 22.05-16.65L22.05-16.65Q22.05-15 22.13-13.13 22.2-11.25 22.25-10.2L22.25-10.2 19.5-10.2 17.85-15.4 17.85-17.55 19.5-22.7ZM28.35 0L28.35 0Q23.95-0.15 9.4-0.15L9.4-0.15Q7.65-0.15 6-0.13 4.35-0.1 1.6 0L1.6 0 1-1.9 5.4-2.95Q5.5-7 5.58-10.93 5.65-14.85 5.65-18.8L5.65-18.8Q5.65-21.95 5.58-24.6 5.5-27.25 5.4-29.85L5.4-29.85 1-31.05 1.65-33Q4.15-32.9 6.15-32.85 8.15-32.8 9.6-32.8L9.6-32.8Q11.05-32.8 13.1-32.8 15.15-32.8 17.4-32.83 19.65-32.85 21.75-32.88 23.85-32.9 25.48-32.93 27.1-32.95 27.85-33L27.85-33Q27.7-29.85 27.6-27.43 27.5-25 27.45-23.1L27.45-23.1 24.25-23.1 23.35-28.35Q22.1-29 20.35-29.3 18.6-29.6 16.65-29.6L16.65-29.6Q15.75-29.6 14.83-29.53 13.9-29.45 12.95-29.35L12.95-29.35Q12.9-24.85 12.88-20.85 12.85-16.85 12.85-13.15L12.85-13.15Q12.85-10.85 12.88-8.45 12.9-6.05 12.95-3.45L12.95-3.45Q13.8-3.35 14.7-3.28 15.6-3.2 16.5-3.2L16.5-3.2Q18.5-3.2 20.4-3.5 22.3-3.8 23.55-4.45L23.55-4.45 24.7-10.5 27.9-10.5Q27.9-8.2 28.03-5.38 28.15-2.55 28.35 0ZM45.05-24.05L49.3-33.2Q52.25-24.95 55.62-17.28 59-9.6 61.85-2.95L61.85-2.95 65.75-1.9 65.1 0Q63.55-0.1 61.62-0.13 59.7-0.15 58.15-0.15L58.15-0.15Q57.25-0.15 55.77-0.13 54.3-0.1 52.85-0.08 51.4-0.05 50.5 0L50.5 0 49.8-1.9 53.7-2.95Q52.2-6.8 49.92-12.33 47.65-17.85 45.05-24.05L45.05-24.05ZM46.75-33.2L49.3-33.2Q48.95-32.3 48.62-31.55 48.3-30.8 47.95-29.75 47.6-28.7 47.2-26.9L47.2-26.9Q46.25-24.3 45.07-21.08 43.9-17.85 42.67-14.53 41.45-11.2 40.45-8.18 39.45-5.15 38.9-2.95L38.9-2.95 42.6-1.9 41.95 0Q38.75-0.15 36.05-0.15L36.05-0.15Q33.55-0.15 30.85 0L30.85 0 30.2-1.9 33.9-2.95Q34.85-4.7 36.12-7.38 37.4-10.05 38.82-13.3 40.25-16.55 41.7-20.05 43.15-23.55 44.45-26.93 45.75-30.3 46.75-33.2L46.75-33.2ZM53.95-11.25L53.95-11.25 53.95-7.35Q51.8-7.6 49.87-7.65 47.95-7.7 46.35-7.7L46.35-7.7Q44.65-7.7 43.02-7.65 41.4-7.6 39.45-7.35L39.45-7.35 39.45-11.2Q41.4-10.95 43.02-10.85 44.65-10.75 46.35-10.75L46.35-10.75Q47.95-10.75 49.87-10.85 51.8-10.95 53.95-11.25ZM90.84-33.65L90.84-33.65Q93.59-33.65 96.44-33.02 99.29-32.4 101.34-31.35L101.34-31.35Q100.84-28.9 100.44-27.08 100.04-25.25 99.64-23.3L99.64-23.3 96.44-23.3 95.94-28.75Q95.24-29.75 93.77-30.28 92.29-30.8 90.69-30.8L90.69-30.8Q88.74-30.8 87.19-29.7 85.64-28.6 85.64-26.5L85.64-26.5Q85.64-24.85 86.87-23.73 88.09-22.6 90.02-21.68 91.94-20.75 94.09-19.75 96.24-18.75 98.17-17.38 100.09-16 101.32-13.95 102.54-11.9 102.54-8.85L102.54-8.85Q102.54-5.55 100.69-3.48 98.84-1.4 95.92-0.45 92.99 0.5 89.69 0.5L89.69 0.5Q86.64 0.5 83.69-0.25 80.74-1 78.59-2.35L78.59-2.35Q79.14-4.6 79.52-6.38 79.89-8.15 80.24-10.6L80.24-10.6 83.49-10.6 84.19-4.1Q85.34-3.3 86.67-2.85 87.99-2.4 89.44-2.4L89.44-2.4Q91.79-2.4 93.57-3.58 95.34-4.75 95.34-7.45L95.34-7.45Q95.34-9.55 94.17-10.85 92.99-12.15 91.14-13.05 89.29-13.95 87.22-14.8 85.14-15.65 83.29-16.8 81.44-17.95 80.27-19.75 79.09-21.55 79.09-24.4L79.09-24.4Q79.09-27.5 80.72-29.55 82.34-31.6 85.02-32.63 87.69-33.65 90.84-33.65ZM116.89-37.25L116.89-37.25Q116.89-32.2 116.89-27.75 116.89-23.3 116.87-19.9 116.84-16.5 116.79-14.55L116.79-14.55 116.94-2.9 120.64-1.85 119.94 0Q118.29-0.1 116.67-0.13 115.04-0.15 113.04-0.15L113.04-0.15Q111.09-0.15 109.39-0.1 107.69-0.05 106.24 0L106.24 0 105.39-1.85 109.74-2.9Q109.89-6.15 109.97-10.05 110.04-13.95 110.04-17.9L110.04-17.9Q110.04-22.35 109.92-26.2 109.79-30.05 109.49-33.65L109.49-33.65 105.59-34.3 105.04-36.35Q107.54-36.4 110.59-36.65 113.64-36.9 116.89-37.25ZM125.29-21.75L125.29-21.75Q128.39-21.75 130.22-19.6 132.04-17.45 132.24-14.05L132.24-14.05Q132.34-13.15 132.29-11.23 132.24-9.3 132.22-7.05 132.19-4.8 132.19-2.9L132.19-2.9 135.89-1.85 135.14 0Q132.44-0.15 128.64-0.15L128.64-0.15Q126.74-0.15 125.19-0.1 123.64-0.05 122.34 0L122.34 0 121.64-1.85 125.29-2.9Q125.39-4.6 125.44-5.78 125.49-6.95 125.52-8.13 125.54-9.3 125.49-10.9L125.49-10.9Q125.44-14.4 124.27-15.7 123.09-17 120.74-17L120.74-17Q118.54-15.55 117.67-13.55 116.79-11.55 116.84-9.65L116.84-9.65 115.04-11.85Q115.39-14.7 116.82-16.95 118.24-19.2 120.44-20.48 122.64-21.75 125.29-21.75ZM147.79-21.85L147.79-21.85Q150.29-21.85 152.41-20.75 154.54-19.65 155.81-17.43 157.09-15.2 157.09-11.85L157.09-11.85Q155.99-11.65 154.19-11.5 152.39-11.35 150.24-11.28 148.09-11.2 145.94-11.2L145.94-11.2Q144.34-11.2 143.19-11.25 142.04-11.3 141.64-11.35L141.64-11.35 141.64-13.75Q142.19-13.75 143.31-13.75 144.44-13.75 145.84-13.8 147.24-13.85 148.56-13.95 149.89-14.05 150.79-14.2L150.79-14.2Q150.74-15.25 150.21-16.32 149.69-17.4 148.64-18.15 147.59-18.9 145.94-18.9L145.94-18.9Q144.94-17.95 144.34-16.28 143.74-14.6 143.74-12.4L143.74-12.4Q143.74-7.9 145.61-5.78 147.49-3.65 150.24-3.65L150.24-3.65Q153.04-3.65 156.14-5.65L156.14-5.65 157.24-3.35Q155.09-1.4 152.64-0.55 150.19 0.3 147.79 0.3L147.79 0.3Q144.99 0.3 142.56-0.93 140.14-2.15 138.66-4.6 137.19-7.05 137.19-10.7L137.19-10.7Q137.19-14.4 138.71-16.88 140.24-19.35 142.66-20.6 145.09-21.85 147.79-21.85ZM181.44-37.35L181.44-37.35Q181.44-34.15 181.41-30.35 181.39-26.55 181.39-21.7L181.39-21.7Q181.39-17.65 181.39-13.88 181.39-10.1 181.41-7.23 181.44-4.35 181.49-2.9L181.49-2.9 185.24-1.85 184.49 0Q183.19-0.1 181.94-0.1 180.69-0.1 178.89-0.1L178.89-0.1Q177.54-0.1 176.64-0.08 175.74-0.05 175.04 0L175.04 0Q174.99-1 174.86-1.88 174.74-2.75 174.64-3.7L174.64-3.7Q174.69-5.95 174.71-8.2 174.74-10.45 174.74-12.55L174.74-12.55Q174.74-14 174.74-15.4 174.74-16.8 174.69-18.3L174.69-18.3Q174.69-20.6 174.61-23.3 174.54-26 174.41-28.7 174.29-31.4 174.09-33.6L174.09-33.6 170.04-34.25 169.59-36.4Q170.44-36.4 171.94-36.5 173.44-36.6 175.21-36.73 176.99-36.85 178.64-37.02 180.29-37.2 181.44-37.35ZM168.39-21.8L168.39-21.8Q171.14-21.8 173.24-20.35 175.34-18.9 176.29-16.25L176.29-16.25 174.74-12Q174.74-13.75 174.01-15.18 173.29-16.6 172.24-17.53 171.19-18.45 170.24-18.65L170.24-18.65Q168.24-18.05 167.11-15.9 165.99-13.75 165.99-10.95L165.99-10.95Q165.99-7.15 167.44-5.3 168.89-3.45 170.74-3.45L170.74-3.45Q172.49-3.45 174.06-5.35 175.64-7.25 176.24-10.35L176.24-10.35 177.79-8.1Q176.44-4.45 174.11-2.05 171.79 0.35 168.39 0.35L168.39 0.35Q166.14 0.35 164.01-0.93 161.89-2.2 160.54-4.73 159.19-7.25 159.19-11.05L159.19-11.05Q159.19-14.6 160.59-17 161.99-19.4 164.11-20.6 166.24-21.8 168.39-21.8Z" opacity="1" transform="matrix(1,0,0,1,0,0)" fill="#000000" class="wordmark-text-0" data-fill-palette-color="quaternary" id="text-0"></path></svg></g></svg></g></svg></g></svg></g><g transform="matrix(1,0,0,1,123.65951214629766,0)"><svg viewBox="0 0 148.20097570740467 164.1353754190502" height="164.1353754190502" width="148.20097570740467"><g><svg xmlns="http://www.w3.org/2000/svg" xmlns:xlink="http://www.w3.org/1999/xlink" version="1.1" x="0" y="0" viewBox="0.00003994017474617806 0 79.45688629861287 88" id="icon-0" width="148.20097570740467" height="164.1353754190502" class="icon-icon-0" data-fill-palette-color="accent"></svg></g></svg></g><g></g></svg></g><defs></defs><mask id="ecbfe64f-32fb-4c74-b3c6-4932c2aed89b"><g id="SvgjsG6133"><svg viewBox="0 0 331.76329731701827 247.2" height="247.2" width="331.76329731701827"><g><svg viewBox="0 0 395.52 294.7057278206784" height="247.2" width="331.76329731701827"><g transform="matrix(1,0,0,1,0,175.9391754190502)"><svg viewBox="0 0 395.52 118.76655240162822" height="118.76655240162822" width="395.52"><g id="SvgjsG6132"><svg viewBox="0 0 395.52 118.76655240162822" height="118.76655240162822" width="395.52" id="SvgjsSvg6131"><g><svg viewBox="0 0 395.52 118.76655240162822" height="118.76655240162822" width="395.52"><rect width="395.52" height="118.76655240162822" x="0" y="0" opacity="1" fill="black"></rect><g transform="matrix(1,0,0,1,23.607599999999998,23.607599999999998)"><svg width="348.3048" viewBox="1 -37.35 184.24 37.85" height="71.55135240162822" data-palette-color="#000000"><path d="M20.8-18.55L20.8-18.55 20.8-14.35Q19.65-14.55 18.85-14.68 18.05-14.8 17.13-14.88 16.2-14.95 14.65-14.95L14.65-14.95Q13.45-14.95 12.08-14.9 10.7-14.85 9.05-14.6L9.05-14.6 9.05-18.3Q10.8-18.15 12.08-18.07 13.35-18 14.55-18L14.55-18Q16.1-18 17.05-18.07 18-18.15 18.82-18.28 19.65-18.4 20.8-18.55ZM19.5-22.7L22.25-22.7Q22.2-21.2 22.13-19.73 22.05-18.25 22.05-16.65L22.05-16.65Q22.05-15 22.13-13.13 22.2-11.25 22.25-10.2L22.25-10.2 19.5-10.2 17.85-15.4 17.85-17.55 19.5-22.7ZM28.35 0L28.35 0Q23.95-0.15 9.4-0.15L9.4-0.15Q7.65-0.15 6-0.13 4.35-0.1 1.6 0L1.6 0 1-1.9 5.4-2.95Q5.5-7 5.58-10.93 5.65-14.85 5.65-18.8L5.65-18.8Q5.65-21.95 5.58-24.6 5.5-27.25 5.4-29.85L5.4-29.85 1-31.05 1.65-33Q4.15-32.9 6.15-32.85 8.15-32.8 9.6-32.8L9.6-32.8Q11.05-32.8 13.1-32.8 15.15-32.8 17.4-32.83 19.65-32.85 21.75-32.88 23.85-32.9 25.48-32.93 27.1-32.95 27.85-33L27.85-33Q27.7-29.85 27.6-27.43 27.5-25 27.45-23.1L27.45-23.1 24.25-23.1 23.35-28.35Q22.1-29 20.35-29.3 18.6-29.6 16.65-29.6L16.65-29.6Q15.75-29.6 14.83-29.53 13.9-29.45 12.95-29.35L12.95-29.35Q12.9-24.85 12.88-20.85 12.85-16.85 12.85-13.15L12.85-13.15Q12.85-10.85 12.88-8.45 12.9-6.05 12.95-3.45L12.95-3.45Q13.8-3.35 14.7-3.28 15.6-3.2 16.5-3.2L16.5-3.2Q18.5-3.2 20.4-3.5 22.3-3.8 23.55-4.45L23.55-4.45 24.7-10.5 27.9-10.5Q27.9-8.2 28.03-5.38 28.15-2.55 28.35 0ZM45.05-24.05L49.3-33.2Q52.25-24.95 55.62-17.28 59-9.6 61.85-2.95L61.85-2.95 65.75-1.9 65.1 0Q63.55-0.1 61.62-0.13 59.7-0.15 58.15-0.15L58.15-0.15Q57.25-0.15 55.77-0.13 54.3-0.1 52.85-0.08 51.4-0.05 50.5 0L50.5 0 49.8-1.9 53.7-2.95Q52.2-6.8 49.92-12.33 47.65-17.85 45.05-24.05L45.05-24.05ZM46.75-33.2L49.3-33.2Q48.95-32.3 48.62-31.55 48.3-30.8 47.95-29.75 47.6-28.7 47.2-26.9L47.2-26.9Q46.25-24.3 45.07-21.08 43.9-17.85 42.67-14.53 41.45-11.2 40.45-8.18 39.45-5.15 38.9-2.95L38.9-2.95 42.6-1.9 41.95 0Q38.75-0.15 36.05-0.15L36.05-0.15Q33.55-0.15 30.85 0L30.85 0 30.2-1.9 33.9-2.95Q34.85-4.7 36.12-7.38 37.4-10.05 38.82-13.3 40.25-16.55 41.7-20.05 43.15-23.55 44.45-26.93 45.75-30.3 46.75-33.2L46.75-33.2ZM53.95-11.25L53.95-11.25 53.95-7.35Q51.8-7.6 49.87-7.65 47.95-7.7 46.35-7.7L46.35-7.7Q44.65-7.7 43.02-7.65 41.4-7.6 39.45-7.35L39.45-7.35 39.45-11.2Q41.4-10.95 43.02-10.85 44.65-10.75 46.35-10.75L46.35-10.75Q47.95-10.75 49.87-10.85 51.8-10.95 53.95-11.25ZM90.84-33.65L90.84-33.65Q93.59-33.65 96.44-33.02 99.29-32.4 101.34-31.35L101.34-31.35Q100.84-28.9 100.44-27.08 100.04-25.25 99.64-23.3L99.64-23.3 96.44-23.3 95.94-28.75Q95.24-29.75 93.77-30.28 92.29-30.8 90.69-30.8L90.69-30.8Q88.74-30.8 87.19-29.7 85.64-28.6 85.64-26.5L85.64-26.5Q85.64-24.85 86.87-23.73 88.09-22.6 90.02-21.68 91.94-20.75 94.09-19.75 96.24-18.75 98.17-17.38 100.09-16 101.32-13.95 102.54-11.9 102.54-8.85L102.54-8.85Q102.54-5.55 100.69-3.48 98.84-1.4 95.92-0.45 92.99 0.5 89.69 0.5L89.69 0.5Q86.64 0.5 83.69-0.25 80.74-1 78.59-2.35L78.59-2.35Q79.14-4.6 79.52-6.38 79.89-8.15 80.24-10.6L80.24-10.6 83.49-10.6 84.19-4.1Q85.34-3.3 86.67-2.85 87.99-2.4 89.44-2.4L89.44-2.4Q91.79-2.4 93.57-3.58 95.34-4.75 95.34-7.45L95.34-7.45Q95.34-9.55 94.17-10.85 92.99-12.15 91.14-13.05 89.29-13.95 87.22-14.8 85.14-15.65 83.29-16.8 81.44-17.95 80.27-19.75 79.09-21.55 79.09-24.4L79.09-24.4Q79.09-27.5 80.72-29.55 82.34-31.6 85.02-32.63 87.69-33.65 90.84-33.65ZM116.89-37.25L116.89-37.25Q116.89-32.2 116.89-27.75 116.89-23.3 116.87-19.9 116.84-16.5 116.79-14.55L116.79-14.55 116.94-2.9 120.64-1.85 119.94 0Q118.29-0.1 116.67-0.13 115.04-0.15 113.04-0.15L113.04-0.15Q111.09-0.15 109.39-0.1 107.69-0.05 106.24 0L106.24 0 105.39-1.85 109.74-2.9Q109.89-6.15 109.97-10.05 110.04-13.95 110.04-17.9L110.04-17.9Q110.04-22.35 109.92-26.2 109.79-30.05 109.49-33.65L109.49-33.65 105.59-34.3 105.04-36.35Q107.54-36.4 110.59-36.65 113.64-36.9 116.89-37.25ZM125.29-21.75L125.29-21.75Q128.39-21.75 130.22-19.6 132.04-17.45 132.24-14.05L132.24-14.05Q132.34-13.15 132.29-11.23 132.24-9.3 132.22-7.05 132.19-4.8 132.19-2.9L132.19-2.9 135.89-1.85 135.14 0Q132.44-0.15 128.64-0.15L128.64-0.15Q126.74-0.15 125.19-0.1 123.64-0.05 122.34 0L122.34 0 121.64-1.85 125.29-2.9Q125.39-4.6 125.44-5.78 125.49-6.95 125.52-8.13 125.54-9.3 125.49-10.9L125.49-10.9Q125.44-14.4 124.27-15.7 123.09-17 120.74-17L120.74-17Q118.54-15.55 117.67-13.55 116.79-11.55 116.84-9.65L116.84-9.65 115.04-11.85Q115.39-14.7 116.82-16.95 118.24-19.2 120.44-20.48 122.64-21.75 125.29-21.75ZM147.79-21.85L147.79-21.85Q150.29-21.85 152.41-20.75 154.54-19.65 155.81-17.43 157.09-15.2 157.09-11.85L157.09-11.85Q155.99-11.65 154.19-11.5 152.39-11.35 150.24-11.28 148.09-11.2 145.94-11.2L145.94-11.2Q144.34-11.2 143.19-11.25 142.04-11.3 141.64-11.35L141.64-11.35 141.64-13.75Q142.19-13.75 143.31-13.75 144.44-13.75 145.84-13.8 147.24-13.85 148.56-13.95 149.89-14.05 150.79-14.2L150.79-14.2Q150.74-15.25 150.21-16.32 149.69-17.4 148.64-18.15 147.59-18.9 145.94-18.9L145.94-18.9Q144.94-17.95 144.34-16.28 143.74-14.6 143.74-12.4L143.74-12.4Q143.74-7.9 145.61-5.78 147.49-3.65 150.24-3.65L150.24-3.65Q153.04-3.65 156.14-5.65L156.14-5.65 157.24-3.35Q155.09-1.4 152.64-0.55 150.19 0.3 147.79 0.3L147.79 0.3Q144.99 0.3 142.56-0.93 140.14-2.15 138.66-4.6 137.19-7.05 137.19-10.7L137.19-10.7Q137.19-14.4 138.71-16.88 140.24-19.35 142.66-20.6 145.09-21.85 147.79-21.85ZM181.44-37.35L181.44-37.35Q181.44-34.15 181.41-30.35 181.39-26.55 181.39-21.7L181.39-21.7Q181.39-17.65 181.39-13.88 181.39-10.1 181.41-7.23 181.44-4.35 181.49-2.9L181.49-2.9 185.24-1.85 184.49 0Q183.19-0.1 181.94-0.1 180.69-0.1 178.89-0.1L178.89-0.1Q177.54-0.1 176.64-0.08 175.74-0.05 175.04 0L175.04 0Q174.99-1 174.86-1.88 174.74-2.75 174.64-3.7L174.64-3.7Q174.69-5.95 174.71-8.2 174.74-10.45 174.74-12.55L174.74-12.55Q174.74-14 174.74-15.4 174.74-16.8 174.69-18.3L174.69-18.3Q174.69-20.6 174.61-23.3 174.54-26 174.41-28.7 174.29-31.4 174.09-33.6L174.09-33.6 170.04-34.25 169.59-36.4Q170.44-36.4 171.94-36.5 173.44-36.6 175.21-36.73 176.99-36.85 178.64-37.02 180.29-37.2 181.44-37.35ZM168.39-21.8L168.39-21.8Q171.14-21.8 173.24-20.35 175.34-18.9 176.29-16.25L176.29-16.25 174.74-12Q174.74-13.75 174.01-15.18 173.29-16.6 172.24-17.53 171.19-18.45 170.24-18.65L170.24-18.65Q168.24-18.05 167.11-15.9 165.99-13.75 165.99-10.95L165.99-10.95Q165.99-7.15 167.44-5.3 168.89-3.45 170.74-3.45L170.74-3.45Q172.49-3.45 174.06-5.35 175.64-7.25 176.24-10.35L176.24-10.35 177.79-8.1Q176.44-4.45 174.11-2.05 171.79 0.35 168.39 0.35L168.39 0.35Q166.14 0.35 164.01-0.93 161.89-2.2 160.54-4.73 159.19-7.25 159.19-11.05L159.19-11.05Q159.19-14.6 160.59-17 161.99-19.4 164.11-20.6 166.24-21.8 168.39-21.8Z" opacity="1" transform="matrix(1,0,0,1,0,0)" fill="black" class="wordmark-text-0" id="SvgjsPath6130"></path></svg></g></svg></g></svg></g></svg></g><g transform="matrix(1,0,0,1,123.65951214629766,0)"><svg viewBox="0 0 148.20097570740467 164.1353754190502" height="164.1353754190502" width="148.20097570740467"><g><svg xmlns="http://www.w3.org/2000/svg" xmlns:xlink="http://www.w3.org/1999/xlink" version="1.1" x="0" y="0" viewBox="0.00003994017474617806 0 79.45688629861287 88" id="SvgjsSvg6129" width="148.20097570740467" height="164.1353754190502" class="icon-icon-0" data-fill-palette-color="accent"><g transform="translate(-10, -6)" fill="white"><path d="M45.337 6C58.123 6.013 69.715 12.548 76.816 23.059 82.778 28.686 85.895 36.187 87.505 44.063H88.454C89.346 44.063 89.792 45.14 89.162 45.77L87.825 47.106C87.985 48.684 87.911 47.721 87.969 50 87.901 68.115 74.941 83.857 57.229 87.478 58.505 87.743 59.821 87.709 61.118 87.772 68.21 87.414 73.564 85.985 77.828 82.839 73.022 90.458 63.999 93.723 54.148 94H54.12C41.445 93.973 29.808 87.552 22.75 77.104 16.703 71.441 13.526 63.899 11.899 55.937H11.002C10.111 55.937 9.665 54.86 10.295 54.23L11.583 52.941C11.419 51.316 11.493 52.295 11.435 50 11.502 31.873 24.473 16.141 42.191 12.518 40.93 12.245 39.623 12.287 38.338 12.228 31.247 12.586 25.893 14.015 21.629 17.161 20.634 17.896 19.453 16.524 20.328 15.649 26.435 9.543 35.458 6.278 45.309 6zM18.388 54.548L18.435 54.78 18.466 54.937V56.347L18.467 56.356C18.521 58.296 18.455 57.581 18.552 58.509 18.581 59.231 18.546 58.848 18.672 59.657 18.969 62.486 18.749 61.088 19.327 63.852 19.398 64.308 19.348 64.117 19.448 64.434 20.335 68.707 22.276 72.686 24.734 76.261L24.735 76.263C26.568 79.112 28.972 81.532 31.584 83.664V83.663L31.587 83.665C33.001 84.819 32.421 84.431 33.238 84.952 34.472 85.913 33.737 85.404 35.498 86.394 37.528 87.689 36.6 87.229 38.208 87.917 39.912 88.874 38.925 88.406 41.22 89.206 45.191 91.271 49.719 91.678 54.103 91.999H54.104L54.189 91.994C57.588 91.949 60.897 91.355 64.18 90.523 65.68 90.127 67.081 89.425 68.532 88.876V88.877 88.876C62.996 89.71 65.456 89.462 61.168 89.771L58.141 89.618 57.603 89.568 51.431 88.309 51.209 88.229 51.14 88.23C43.884 85.165 47.007 86.932 41.587 83.272L38.803 81.034 36.591 78.822C35.13 77.296 35.807 78.104 34.561 76.398L32.595 73.488 31.244 71.013 30.749 69.842C29.106 65.649 29.876 67.949 28.557 62.902L28.544 62.839C27.8 57.839 28.015 60.007 27.745 56.351L27.744 56.347V54.937L27.823 54.548C28.449 53.922 28.109 54.065 28.744 53.937H32.795L23.105 44.247 21.905 45.448V45.447L18.353 49 16.353 51 13.667 53.686V53.687L13.416 53.937H17.466L17.856 54.016zM62.217 51H50.702V85.895L50.986 86.016C56.144 84.082 57.872 77.841 59.298 73.08 61.449 65.917 61.944 58.43 62.217 51M68.77 51H64.216C63.779 62.796 63.092 75.706 55.31 85.243 67.359 81.38 73.371 69.041 75.03 57.26zM48.702 51H37.179C37.178 60.243 38.562 69.346 41.832 77.993 42.5 79.72 43.395 81.317 44.463 82.822 46.932 84.491 45.54 83.71 48.702 85.049zM85.943 51H83.931L77.069 57.862C75.552 67.315 70.661 79.555 61.623 84.237 75.749 79.74 85.574 65.616 85.943 51M35.363 55.913L35.209 55.937H29.744V56.347C29.826 63.649 32.274 70.665 36.916 76.335 38.111 77.795 39.582 79.004 40.915 80.339 36.615 72.956 36.077 64.2 35.364 55.913zM16.466 55.937H13.938C14.543 60.423 16.348 64.502 18.485 68.436 17.049 64.558 16.571 60.453 16.466 56.347zM76.351 55.752L86.04 46.063H81.99L81.817 46.028C81.283 45.991 81.079 45.506 80.99 45.063V43.653C80.821 32.419 75.4 20.905 65.738 14.741 63.484 13.226 64.396 13.712 63.123 13.073 61.72 12.178 62.553 12.641 60.568 11.792 58.037 10.522 59.584 11.242 55.861 9.778 53.617 9.061 51.259 8.769 48.958 8.264L45.353 8C41.925 8.046 38.588 8.638 35.276 9.477 33.777 9.873 32.375 10.575 30.924 11.124 36.46 10.29 34 10.538 38.288 10.229L41.29 10.381 41.853 10.432 48.062 11.698 48.259 11.77 48.313 11.768C54.759 14.491 52.449 13.067 55.674 15.245L55.676 15.247 57.81 16.687 60.644 18.957 62.742 21.055C64.322 22.696 63.573 21.812 64.976 23.719L66.827 26.462 68.207 28.975 68.652 30.027C70.34 34.311 69.556 31.977 70.893 37.064L70.907 37.134C71.657 42.154 71.44 39.975 71.712 43.653V45.063L71.645 45.396C71.558 45.923 71.094 45.986 70.712 46.063H66.661zM35.174 51H32.686L35.261 53.574zM13.525 51H13.46L13.462 51.063zM48.446 13.974C43.268 15.899 41.535 22.146 40.106 26.92 37.955 34.083 37.46 41.57 37.187 49H48.702V14.082zM50.702 14.929V49H62.225C62.226 39.758 60.842 30.654 57.571 22.007 56.899 20.25 55.976 18.637 54.892 17.11 52.509 15.498 53.879 16.274 50.702 14.929M64.141 46.371L64.23 49H66.77zM44.094 14.757C32.068 18.613 26.036 30.928 24.38 42.694L30.686 49H35.188C35.625 37.204 36.311 24.294 44.094 14.757M38.694 15.479C24.138 19.891 13.843 33.883 13.46 49H15.525L22.36 42.164C23.908 31.499 29.066 21.001 38.694 15.48zM85.943 48.988L85.931 49H85.943zM58.412 19.532C62.775 26.947 63.322 35.752 64.041 44.094L64.247 44.063H69.712V43.653C69.627 36.357 67.191 29.327 62.541 23.665 61.305 22.16 59.789 20.91 58.413 19.532zM81.042 31.791C82.438 35.597 82.888 39.628 82.99 43.653V44.063H85.466C85.034 40.616 83.731 37.443 82.392 34.277z" fill="white"></path></g></svg></g></svg></g><g></g></svg></g><defs><mask></mask></defs></svg><rect width="331.76329731701827" height="247.2" fill="black" stroke="none" visibility="hidden"></rect></g></mask><linearGradient x1="0" x2="1" y1="0.5" y2="0.5" id="1eab04da-7e47-464d-b96e-34ae256ddee2"><stop stop-color="#fff72e" offset="0"></stop><stop stop-color="#deae29" offset="1"></stop></linearGradient><rect width="331.76329731701827" height="247.2" fill="#ffffff" mask="url(#ecbfe64f-32fb-4c74-b3c6-4932c2aed89b)" data-fill-palette-color="accent"></rect><mask id="8f006bd0-fa12-4369-be2f-1107087a6658"><g id="SvgjsG6143"><svg viewBox="0 0 331.76329731701827 247.2" height="247.2" width="331.76329731701827"><g><svg viewBox="0 0 395.52 294.7057278206784" height="247.2" width="331.76329731701827"><g transform="matrix(1,0,0,1,0,175.9391754190502)"><svg viewBox="0 0 395.52 118.76655240162822" height="118.76655240162822" width="395.52"><g id="SvgjsG6142"><svg viewBox="0 0 395.52 118.76655240162822" height="118.76655240162822" width="395.52" id="SvgjsSvg6141"><g><svg viewBox="0 0 395.52 118.76655240162822" height="118.76655240162822" width="395.52"><rect width="395.52" height="118.76655240162822" x="0" y="0" opacity="1" fill="white"></rect><g transform="matrix(1,0,0,1,23.607599999999998,23.607599999999998)"><svg width="348.3048" viewBox="1 -37.35 184.24 37.85" height="71.55135240162822" data-palette-color="#000000"><path d="M20.8-18.55L20.8-18.55 20.8-14.35Q19.65-14.55 18.85-14.68 18.05-14.8 17.13-14.88 16.2-14.95 14.65-14.95L14.65-14.95Q13.45-14.95 12.08-14.9 10.7-14.85 9.05-14.6L9.05-14.6 9.05-18.3Q10.8-18.15 12.08-18.07 13.35-18 14.55-18L14.55-18Q16.1-18 17.05-18.07 18-18.15 18.82-18.28 19.65-18.4 20.8-18.55ZM19.5-22.7L22.25-22.7Q22.2-21.2 22.13-19.73 22.05-18.25 22.05-16.65L22.05-16.65Q22.05-15 22.13-13.13 22.2-11.25 22.25-10.2L22.25-10.2 19.5-10.2 17.85-15.4 17.85-17.55 19.5-22.7ZM28.35 0L28.35 0Q23.95-0.15 9.4-0.15L9.4-0.15Q7.65-0.15 6-0.13 4.35-0.1 1.6 0L1.6 0 1-1.9 5.4-2.95Q5.5-7 5.58-10.93 5.65-14.85 5.65-18.8L5.65-18.8Q5.65-21.95 5.58-24.6 5.5-27.25 5.4-29.85L5.4-29.85 1-31.05 1.65-33Q4.15-32.9 6.15-32.85 8.15-32.8 9.6-32.8L9.6-32.8Q11.05-32.8 13.1-32.8 15.15-32.8 17.4-32.83 19.65-32.85 21.75-32.88 23.85-32.9 25.48-32.93 27.1-32.95 27.85-33L27.85-33Q27.7-29.85 27.6-27.43 27.5-25 27.45-23.1L27.45-23.1 24.25-23.1 23.35-28.35Q22.1-29 20.35-29.3 18.6-29.6 16.65-29.6L16.65-29.6Q15.75-29.6 14.83-29.53 13.9-29.45 12.95-29.35L12.95-29.35Q12.9-24.85 12.88-20.85 12.85-16.85 12.85-13.15L12.85-13.15Q12.85-10.85 12.88-8.45 12.9-6.05 12.95-3.45L12.95-3.45Q13.8-3.35 14.7-3.28 15.6-3.2 16.5-3.2L16.5-3.2Q18.5-3.2 20.4-3.5 22.3-3.8 23.55-4.45L23.55-4.45 24.7-10.5 27.9-10.5Q27.9-8.2 28.03-5.38 28.15-2.55 28.35 0ZM45.05-24.05L49.3-33.2Q52.25-24.95 55.62-17.28 59-9.6 61.85-2.95L61.85-2.95 65.75-1.9 65.1 0Q63.55-0.1 61.62-0.13 59.7-0.15 58.15-0.15L58.15-0.15Q57.25-0.15 55.77-0.13 54.3-0.1 52.85-0.08 51.4-0.05 50.5 0L50.5 0 49.8-1.9 53.7-2.95Q52.2-6.8 49.92-12.33 47.65-17.85 45.05-24.05L45.05-24.05ZM46.75-33.2L49.3-33.2Q48.95-32.3 48.62-31.55 48.3-30.8 47.95-29.75 47.6-28.7 47.2-26.9L47.2-26.9Q46.25-24.3 45.07-21.08 43.9-17.85 42.67-14.53 41.45-11.2 40.45-8.18 39.45-5.15 38.9-2.95L38.9-2.95 42.6-1.9 41.95 0Q38.75-0.15 36.05-0.15L36.05-0.15Q33.55-0.15 30.85 0L30.85 0 30.2-1.9 33.9-2.95Q34.85-4.7 36.12-7.38 37.4-10.05 38.82-13.3 40.25-16.55 41.7-20.05 43.15-23.55 44.45-26.93 45.75-30.3 46.75-33.2L46.75-33.2ZM53.95-11.25L53.95-11.25 53.95-7.35Q51.8-7.6 49.87-7.65 47.95-7.7 46.35-7.7L46.35-7.7Q44.65-7.7 43.02-7.65 41.4-7.6 39.45-7.35L39.45-7.35 39.45-11.2Q41.4-10.95 43.02-10.85 44.65-10.75 46.35-10.75L46.35-10.75Q47.95-10.75 49.87-10.85 51.8-10.95 53.95-11.25ZM90.84-33.65L90.84-33.65Q93.59-33.65 96.44-33.02 99.29-32.4 101.34-31.35L101.34-31.35Q100.84-28.9 100.44-27.08 100.04-25.25 99.64-23.3L99.64-23.3 96.44-23.3 95.94-28.75Q95.24-29.75 93.77-30.28 92.29-30.8 90.69-30.8L90.69-30.8Q88.74-30.8 87.19-29.7 85.64-28.6 85.64-26.5L85.64-26.5Q85.64-24.85 86.87-23.73 88.09-22.6 90.02-21.68 91.94-20.75 94.09-19.75 96.24-18.75 98.17-17.38 100.09-16 101.32-13.95 102.54-11.9 102.54-8.85L102.54-8.85Q102.54-5.55 100.69-3.48 98.84-1.4 95.92-0.45 92.99 0.5 89.69 0.5L89.69 0.5Q86.64 0.5 83.69-0.25 80.74-1 78.59-2.35L78.59-2.35Q79.14-4.6 79.52-6.38 79.89-8.15 80.24-10.6L80.24-10.6 83.49-10.6 84.19-4.1Q85.34-3.3 86.67-2.85 87.99-2.4 89.44-2.4L89.44-2.4Q91.79-2.4 93.57-3.58 95.34-4.75 95.34-7.45L95.34-7.45Q95.34-9.55 94.17-10.85 92.99-12.15 91.14-13.05 89.29-13.95 87.22-14.8 85.14-15.65 83.29-16.8 81.44-17.95 80.27-19.75 79.09-21.55 79.09-24.4L79.09-24.4Q79.09-27.5 80.72-29.55 82.34-31.6 85.02-32.63 87.69-33.65 90.84-33.65ZM116.89-37.25L116.89-37.25Q116.89-32.2 116.89-27.75 116.89-23.3 116.87-19.9 116.84-16.5 116.79-14.55L116.79-14.55 116.94-2.9 120.64-1.85 119.94 0Q118.29-0.1 116.67-0.13 115.04-0.15 113.04-0.15L113.04-0.15Q111.09-0.15 109.39-0.1 107.69-0.05 106.24 0L106.24 0 105.39-1.85 109.74-2.9Q109.89-6.15 109.97-10.05 110.04-13.95 110.04-17.9L110.04-17.9Q110.04-22.35 109.92-26.2 109.79-30.05 109.49-33.65L109.49-33.65 105.59-34.3 105.04-36.35Q107.54-36.4 110.59-36.65 113.64-36.9 116.89-37.25ZM125.29-21.75L125.29-21.75Q128.39-21.75 130.22-19.6 132.04-17.45 132.24-14.05L132.24-14.05Q132.34-13.15 132.29-11.23 132.24-9.3 132.22-7.05 132.19-4.8 132.19-2.9L132.19-2.9 135.89-1.85 135.14 0Q132.44-0.15 128.64-0.15L128.64-0.15Q126.74-0.15 125.19-0.1 123.64-0.05 122.34 0L122.34 0 121.64-1.85 125.29-2.9Q125.39-4.6 125.44-5.78 125.49-6.95 125.52-8.13 125.54-9.3 125.49-10.9L125.49-10.9Q125.44-14.4 124.27-15.7 123.09-17 120.74-17L120.74-17Q118.54-15.55 117.67-13.55 116.79-11.55 116.84-9.65L116.84-9.65 115.04-11.85Q115.39-14.7 116.82-16.95 118.24-19.2 120.44-20.48 122.64-21.75 125.29-21.75ZM147.79-21.85L147.79-21.85Q150.29-21.85 152.41-20.75 154.54-19.65 155.81-17.43 157.09-15.2 157.09-11.85L157.09-11.85Q155.99-11.65 154.19-11.5 152.39-11.35 150.24-11.28 148.09-11.2 145.94-11.2L145.94-11.2Q144.34-11.2 143.19-11.25 142.04-11.3 141.64-11.35L141.64-11.35 141.64-13.75Q142.19-13.75 143.31-13.75 144.44-13.75 145.84-13.8 147.24-13.85 148.56-13.95 149.89-14.05 150.79-14.2L150.79-14.2Q150.74-15.25 150.21-16.32 149.69-17.4 148.64-18.15 147.59-18.9 145.94-18.9L145.94-18.9Q144.94-17.95 144.34-16.28 143.74-14.6 143.74-12.4L143.74-12.4Q143.74-7.9 145.61-5.78 147.49-3.65 150.24-3.65L150.24-3.65Q153.04-3.65 156.14-5.65L156.14-5.65 157.24-3.35Q155.09-1.4 152.64-0.55 150.19 0.3 147.79 0.3L147.79 0.3Q144.99 0.3 142.56-0.93 140.14-2.15 138.66-4.6 137.19-7.05 137.19-10.7L137.19-10.7Q137.19-14.4 138.71-16.88 140.24-19.35 142.66-20.6 145.09-21.85 147.79-21.85ZM181.44-37.35L181.44-37.35Q181.44-34.15 181.41-30.35 181.39-26.55 181.39-21.7L181.39-21.7Q181.39-17.65 181.39-13.88 181.39-10.1 181.41-7.23 181.44-4.35 181.49-2.9L181.49-2.9 185.24-1.85 184.49 0Q183.19-0.1 181.94-0.1 180.69-0.1 178.89-0.1L178.89-0.1Q177.54-0.1 176.64-0.08 175.74-0.05 175.04 0L175.04 0Q174.99-1 174.86-1.88 174.74-2.75 174.64-3.7L174.64-3.7Q174.69-5.95 174.71-8.2 174.74-10.45 174.74-12.55L174.74-12.55Q174.74-14 174.74-15.4 174.74-16.8 174.69-18.3L174.69-18.3Q174.69-20.6 174.61-23.3 174.54-26 174.41-28.7 174.29-31.4 174.09-33.6L174.09-33.6 170.04-34.25 169.59-36.4Q170.44-36.4 171.94-36.5 173.44-36.6 175.21-36.73 176.99-36.85 178.64-37.02 180.29-37.2 181.44-37.35ZM168.39-21.8L168.39-21.8Q171.14-21.8 173.24-20.35 175.34-18.9 176.29-16.25L176.29-16.25 174.74-12Q174.74-13.75 174.01-15.18 173.29-16.6 172.24-17.53 171.19-18.45 170.24-18.65L170.24-18.65Q168.24-18.05 167.11-15.9 165.99-13.75 165.99-10.95L165.99-10.95Q165.99-7.15 167.44-5.3 168.89-3.45 170.74-3.45L170.74-3.45Q172.49-3.45 174.06-5.35 175.64-7.25 176.24-10.35L176.24-10.35 177.79-8.1Q176.44-4.45 174.11-2.05 171.79 0.35 168.39 0.35L168.39 0.35Q166.14 0.35 164.01-0.93 161.89-2.2 160.54-4.73 159.19-7.25 159.19-11.05L159.19-11.05Q159.19-14.6 160.59-17 161.99-19.4 164.11-20.6 166.24-21.8 168.39-21.8Z" opacity="1" transform="matrix(1,0,0,1,0,0)" fill="black" class="wordmark-text-0" id="SvgjsPath6140"></path></svg></g></svg></g></svg></g></svg></g><g transform="matrix(1,0,0,1,123.65951214629766,0)"><svg viewBox="0 0 148.20097570740467 164.1353754190502" height="164.1353754190502" width="148.20097570740467"><g><svg xmlns="http://www.w3.org/2000/svg" xmlns:xlink="http://www.w3.org/1999/xlink" version="1.1" x="0" y="0" viewBox="0.00003994017474617806 0 79.45688629861287 88" id="SvgjsSvg6139" width="148.20097570740467" height="164.1353754190502" class="icon-icon-0" data-fill-palette-color="accent"></svg></g></svg></g><g></g></svg></g><defs><mask></mask></defs><mask><g id="SvgjsG6138"><svg viewBox="0 0 331.76329731701827 247.2" height="247.2" width="331.76329731701827"><g><svg viewBox="0 0 395.52 294.7057278206784" height="247.2" width="331.76329731701827"><g transform="matrix(1,0,0,1,0,175.9391754190502)"><svg viewBox="0 0 395.52 118.76655240162822" height="118.76655240162822" width="395.52"><g id="SvgjsG6137"><svg viewBox="0 0 395.52 118.76655240162822" height="118.76655240162822" width="395.52" id="SvgjsSvg6136"><g><svg viewBox="0 0 395.52 118.76655240162822" height="118.76655240162822" width="395.52"><rect width="395.52" height="118.76655240162822" x="0" y="0" opacity="1" fill="black"></rect><g transform="matrix(1,0,0,1,23.607599999999998,23.607599999999998)"><svg width="348.3048" viewBox="1 -37.35 184.24 37.85" height="71.55135240162822" data-palette-color="#000000"><path d="M20.8-18.55L20.8-18.55 20.8-14.35Q19.65-14.55 18.85-14.68 18.05-14.8 17.13-14.88 16.2-14.95 14.65-14.95L14.65-14.95Q13.45-14.95 12.08-14.9 10.7-14.85 9.05-14.6L9.05-14.6 9.05-18.3Q10.8-18.15 12.08-18.07 13.35-18 14.55-18L14.55-18Q16.1-18 17.05-18.07 18-18.15 18.82-18.28 19.65-18.4 20.8-18.55ZM19.5-22.7L22.25-22.7Q22.2-21.2 22.13-19.73 22.05-18.25 22.05-16.65L22.05-16.65Q22.05-15 22.13-13.13 22.2-11.25 22.25-10.2L22.25-10.2 19.5-10.2 17.85-15.4 17.85-17.55 19.5-22.7ZM28.35 0L28.35 0Q23.95-0.15 9.4-0.15L9.4-0.15Q7.65-0.15 6-0.13 4.35-0.1 1.6 0L1.6 0 1-1.9 5.4-2.95Q5.5-7 5.58-10.93 5.65-14.85 5.65-18.8L5.65-18.8Q5.65-21.95 5.58-24.6 5.5-27.25 5.4-29.85L5.4-29.85 1-31.05 1.65-33Q4.15-32.9 6.15-32.85 8.15-32.8 9.6-32.8L9.6-32.8Q11.05-32.8 13.1-32.8 15.15-32.8 17.4-32.83 19.65-32.85 21.75-32.88 23.85-32.9 25.48-32.93 27.1-32.95 27.85-33L27.85-33Q27.7-29.85 27.6-27.43 27.5-25 27.45-23.1L27.45-23.1 24.25-23.1 23.35-28.35Q22.1-29 20.35-29.3 18.6-29.6 16.65-29.6L16.65-29.6Q15.75-29.6 14.83-29.53 13.9-29.45 12.95-29.35L12.95-29.35Q12.9-24.85 12.88-20.85 12.85-16.85 12.85-13.15L12.85-13.15Q12.85-10.85 12.88-8.45 12.9-6.05 12.95-3.45L12.95-3.45Q13.8-3.35 14.7-3.28 15.6-3.2 16.5-3.2L16.5-3.2Q18.5-3.2 20.4-3.5 22.3-3.8 23.55-4.45L23.55-4.45 24.7-10.5 27.9-10.5Q27.9-8.2 28.03-5.38 28.15-2.55 28.35 0ZM45.05-24.05L49.3-33.2Q52.25-24.95 55.62-17.28 59-9.6 61.85-2.95L61.85-2.95 65.75-1.9 65.1 0Q63.55-0.1 61.62-0.13 59.7-0.15 58.15-0.15L58.15-0.15Q57.25-0.15 55.77-0.13 54.3-0.1 52.85-0.08 51.4-0.05 50.5 0L50.5 0 49.8-1.9 53.7-2.95Q52.2-6.8 49.92-12.33 47.65-17.85 45.05-24.05L45.05-24.05ZM46.75-33.2L49.3-33.2Q48.95-32.3 48.62-31.55 48.3-30.8 47.95-29.75 47.6-28.7 47.2-26.9L47.2-26.9Q46.25-24.3 45.07-21.08 43.9-17.85 42.67-14.53 41.45-11.2 40.45-8.18 39.45-5.15 38.9-2.95L38.9-2.95 42.6-1.9 41.95 0Q38.75-0.15 36.05-0.15L36.05-0.15Q33.55-0.15 30.85 0L30.85 0 30.2-1.9 33.9-2.95Q34.85-4.7 36.12-7.38 37.4-10.05 38.82-13.3 40.25-16.55 41.7-20.05 43.15-23.55 44.45-26.93 45.75-30.3 46.75-33.2L46.75-33.2ZM53.95-11.25L53.95-11.25 53.95-7.35Q51.8-7.6 49.87-7.65 47.95-7.7 46.35-7.7L46.35-7.7Q44.65-7.7 43.02-7.65 41.4-7.6 39.45-7.35L39.45-7.35 39.45-11.2Q41.4-10.95 43.02-10.85 44.65-10.75 46.35-10.75L46.35-10.75Q47.95-10.75 49.87-10.85 51.8-10.95 53.95-11.25ZM90.84-33.65L90.84-33.65Q93.59-33.65 96.44-33.02 99.29-32.4 101.34-31.35L101.34-31.35Q100.84-28.9 100.44-27.08 100.04-25.25 99.64-23.3L99.64-23.3 96.44-23.3 95.94-28.75Q95.24-29.75 93.77-30.28 92.29-30.8 90.69-30.8L90.69-30.8Q88.74-30.8 87.19-29.7 85.64-28.6 85.64-26.5L85.64-26.5Q85.64-24.85 86.87-23.73 88.09-22.6 90.02-21.68 91.94-20.75 94.09-19.75 96.24-18.75 98.17-17.38 100.09-16 101.32-13.95 102.54-11.9 102.54-8.85L102.54-8.85Q102.54-5.55 100.69-3.48 98.84-1.4 95.92-0.45 92.99 0.5 89.69 0.5L89.69 0.5Q86.64 0.5 83.69-0.25 80.74-1 78.59-2.35L78.59-2.35Q79.14-4.6 79.52-6.38 79.89-8.15 80.24-10.6L80.24-10.6 83.49-10.6 84.19-4.1Q85.34-3.3 86.67-2.85 87.99-2.4 89.44-2.4L89.44-2.4Q91.79-2.4 93.57-3.58 95.34-4.75 95.34-7.45L95.34-7.45Q95.34-9.55 94.17-10.85 92.99-12.15 91.14-13.05 89.29-13.95 87.22-14.8 85.14-15.65 83.29-16.8 81.44-17.95 80.27-19.75 79.09-21.55 79.09-24.4L79.09-24.4Q79.09-27.5 80.72-29.55 82.34-31.6 85.02-32.63 87.69-33.65 90.84-33.65ZM116.89-37.25L116.89-37.25Q116.89-32.2 116.89-27.75 116.89-23.3 116.87-19.9 116.84-16.5 116.79-14.55L116.79-14.55 116.94-2.9 120.64-1.85 119.94 0Q118.29-0.1 116.67-0.13 115.04-0.15 113.04-0.15L113.04-0.15Q111.09-0.15 109.39-0.1 107.69-0.05 106.24 0L106.24 0 105.39-1.85 109.74-2.9Q109.89-6.15 109.97-10.05 110.04-13.95 110.04-17.9L110.04-17.9Q110.04-22.35 109.92-26.2 109.79-30.05 109.49-33.65L109.49-33.65 105.59-34.3 105.04-36.35Q107.54-36.4 110.59-36.65 113.64-36.9 116.89-37.25ZM125.29-21.75L125.29-21.75Q128.39-21.75 130.22-19.6 132.04-17.45 132.24-14.05L132.24-14.05Q132.34-13.15 132.29-11.23 132.24-9.3 132.22-7.05 132.19-4.8 132.19-2.9L132.19-2.9 135.89-1.85 135.14 0Q132.44-0.15 128.64-0.15L128.64-0.15Q126.74-0.15 125.19-0.1 123.64-0.05 122.34 0L122.34 0 121.64-1.85 125.29-2.9Q125.39-4.6 125.44-5.78 125.49-6.95 125.52-8.13 125.54-9.3 125.49-10.9L125.49-10.9Q125.44-14.4 124.27-15.7 123.09-17 120.74-17L120.74-17Q118.54-15.55 117.67-13.55 116.79-11.55 116.84-9.65L116.84-9.65 115.04-11.85Q115.39-14.7 116.82-16.95 118.24-19.2 120.44-20.48 122.64-21.75 125.29-21.75ZM147.79-21.85L147.79-21.85Q150.29-21.85 152.41-20.75 154.54-19.65 155.81-17.43 157.09-15.2 157.09-11.85L157.09-11.85Q155.99-11.65 154.19-11.5 152.39-11.35 150.24-11.28 148.09-11.2 145.94-11.2L145.94-11.2Q144.34-11.2 143.19-11.25 142.04-11.3 141.64-11.35L141.64-11.35 141.64-13.75Q142.19-13.75 143.31-13.75 144.44-13.75 145.84-13.8 147.24-13.85 148.56-13.95 149.89-14.05 150.79-14.2L150.79-14.2Q150.74-15.25 150.21-16.32 149.69-17.4 148.64-18.15 147.59-18.9 145.94-18.9L145.94-18.9Q144.94-17.95 144.34-16.28 143.74-14.6 143.74-12.4L143.74-12.4Q143.74-7.9 145.61-5.78 147.49-3.65 150.24-3.65L150.24-3.65Q153.04-3.65 156.14-5.65L156.14-5.65 157.24-3.35Q155.09-1.4 152.64-0.55 150.19 0.3 147.79 0.3L147.79 0.3Q144.99 0.3 142.56-0.93 140.14-2.15 138.66-4.6 137.19-7.05 137.19-10.7L137.19-10.7Q137.19-14.4 138.71-16.88 140.24-19.35 142.66-20.6 145.09-21.85 147.79-21.85ZM181.44-37.35L181.44-37.35Q181.44-34.15 181.41-30.35 181.39-26.55 181.39-21.7L181.39-21.7Q181.39-17.65 181.39-13.88 181.39-10.1 181.41-7.23 181.44-4.35 181.49-2.9L181.49-2.9 185.24-1.85 184.49 0Q183.19-0.1 181.94-0.1 180.69-0.1 178.89-0.1L178.89-0.1Q177.54-0.1 176.64-0.08 175.74-0.05 175.04 0L175.04 0Q174.99-1 174.86-1.88 174.74-2.75 174.64-3.7L174.64-3.7Q174.69-5.95 174.71-8.2 174.74-10.45 174.74-12.55L174.74-12.55Q174.74-14 174.74-15.4 174.74-16.8 174.69-18.3L174.69-18.3Q174.69-20.6 174.61-23.3 174.54-26 174.41-28.7 174.29-31.4 174.09-33.6L174.09-33.6 170.04-34.25 169.59-36.4Q170.44-36.4 171.94-36.5 173.44-36.6 175.21-36.73 176.99-36.85 178.64-37.02 180.29-37.2 181.44-37.35ZM168.39-21.8L168.39-21.8Q171.14-21.8 173.24-20.35 175.34-18.9 176.29-16.25L176.29-16.25 174.74-12Q174.74-13.75 174.01-15.18 173.29-16.6 172.24-17.53 171.19-18.45 170.24-18.65L170.24-18.65Q168.24-18.05 167.11-15.9 165.99-13.75 165.99-10.95L165.99-10.95Q165.99-7.15 167.44-5.3 168.89-3.45 170.74-3.45L170.74-3.45Q172.49-3.45 174.06-5.35 175.64-7.25 176.24-10.35L176.24-10.35 177.79-8.1Q176.44-4.45 174.11-2.05 171.79 0.35 168.39 0.35L168.39 0.35Q166.14 0.35 164.01-0.93 161.89-2.2 160.54-4.73 159.19-7.25 159.19-11.05L159.19-11.05Q159.19-14.6 160.59-17 161.99-19.4 164.11-20.6 166.24-21.8 168.39-21.8Z" opacity="1" transform="matrix(1,0,0,1,0,0)" fill="black" class="wordmark-text-0" id="SvgjsPath6135"></path></svg></g></svg></g></svg></g></svg></g><g transform="matrix(1,0,0,1,123.65951214629766,0)"><svg viewBox="0 0 148.20097570740467 164.1353754190502" height="164.1353754190502" width="148.20097570740467"><g><svg xmlns="http://www.w3.org/2000/svg" xmlns:xlink="http://www.w3.org/1999/xlink" version="1.1" x="0" y="0" viewBox="0.00003994017474617806 0 79.45688629861287 88" id="SvgjsSvg6134" width="148.20097570740467" height="164.1353754190502" class="icon-icon-0" data-fill-palette-color="accent"><g transform="translate(-10, -6)" fill="black"><path d="M45.337 6C58.123 6.013 69.715 12.548 76.816 23.059 82.778 28.686 85.895 36.187 87.505 44.063H88.454C89.346 44.063 89.792 45.14 89.162 45.77L87.825 47.106C87.985 48.684 87.911 47.721 87.969 50 87.901 68.115 74.941 83.857 57.229 87.478 58.505 87.743 59.821 87.709 61.118 87.772 68.21 87.414 73.564 85.985 77.828 82.839 73.022 90.458 63.999 93.723 54.148 94H54.12C41.445 93.973 29.808 87.552 22.75 77.104 16.703 71.441 13.526 63.899 11.899 55.937H11.002C10.111 55.937 9.665 54.86 10.295 54.23L11.583 52.941C11.419 51.316 11.493 52.295 11.435 50 11.502 31.873 24.473 16.141 42.191 12.518 40.93 12.245 39.623 12.287 38.338 12.228 31.247 12.586 25.893 14.015 21.629 17.161 20.634 17.896 19.453 16.524 20.328 15.649 26.435 9.543 35.458 6.278 45.309 6zM18.388 54.548L18.435 54.78 18.466 54.937V56.347L18.467 56.356C18.521 58.296 18.455 57.581 18.552 58.509 18.581 59.231 18.546 58.848 18.672 59.657 18.969 62.486 18.749 61.088 19.327 63.852 19.398 64.308 19.348 64.117 19.448 64.434 20.335 68.707 22.276 72.686 24.734 76.261L24.735 76.263C26.568 79.112 28.972 81.532 31.584 83.664V83.663L31.587 83.665C33.001 84.819 32.421 84.431 33.238 84.952 34.472 85.913 33.737 85.404 35.498 86.394 37.528 87.689 36.6 87.229 38.208 87.917 39.912 88.874 38.925 88.406 41.22 89.206 45.191 91.271 49.719 91.678 54.103 91.999H54.104L54.189 91.994C57.588 91.949 60.897 91.355 64.18 90.523 65.68 90.127 67.081 89.425 68.532 88.876V88.877 88.876C62.996 89.71 65.456 89.462 61.168 89.771L58.141 89.618 57.603 89.568 51.431 88.309 51.209 88.229 51.14 88.23C43.884 85.165 47.007 86.932 41.587 83.272L38.803 81.034 36.591 78.822C35.13 77.296 35.807 78.104 34.561 76.398L32.595 73.488 31.244 71.013 30.749 69.842C29.106 65.649 29.876 67.949 28.557 62.902L28.544 62.839C27.8 57.839 28.015 60.007 27.745 56.351L27.744 56.347V54.937L27.823 54.548C28.449 53.922 28.109 54.065 28.744 53.937H32.795L23.105 44.247 21.905 45.448V45.447L18.353 49 16.353 51 13.667 53.686V53.687L13.416 53.937H17.466L17.856 54.016zM62.217 51H50.702V85.895L50.986 86.016C56.144 84.082 57.872 77.841 59.298 73.08 61.449 65.917 61.944 58.43 62.217 51M68.77 51H64.216C63.779 62.796 63.092 75.706 55.31 85.243 67.359 81.38 73.371 69.041 75.03 57.26zM48.702 51H37.179C37.178 60.243 38.562 69.346 41.832 77.993 42.5 79.72 43.395 81.317 44.463 82.822 46.932 84.491 45.54 83.71 48.702 85.049zM85.943 51H83.931L77.069 57.862C75.552 67.315 70.661 79.555 61.623 84.237 75.749 79.74 85.574 65.616 85.943 51M35.363 55.913L35.209 55.937H29.744V56.347C29.826 63.649 32.274 70.665 36.916 76.335 38.111 77.795 39.582 79.004 40.915 80.339 36.615 72.956 36.077 64.2 35.364 55.913zM16.466 55.937H13.938C14.543 60.423 16.348 64.502 18.485 68.436 17.049 64.558 16.571 60.453 16.466 56.347zM76.351 55.752L86.04 46.063H81.99L81.817 46.028C81.283 45.991 81.079 45.506 80.99 45.063V43.653C80.821 32.419 75.4 20.905 65.738 14.741 63.484 13.226 64.396 13.712 63.123 13.073 61.72 12.178 62.553 12.641 60.568 11.792 58.037 10.522 59.584 11.242 55.861 9.778 53.617 9.061 51.259 8.769 48.958 8.264L45.353 8C41.925 8.046 38.588 8.638 35.276 9.477 33.777 9.873 32.375 10.575 30.924 11.124 36.46 10.29 34 10.538 38.288 10.229L41.29 10.381 41.853 10.432 48.062 11.698 48.259 11.77 48.313 11.768C54.759 14.491 52.449 13.067 55.674 15.245L55.676 15.247 57.81 16.687 60.644 18.957 62.742 21.055C64.322 22.696 63.573 21.812 64.976 23.719L66.827 26.462 68.207 28.975 68.652 30.027C70.34 34.311 69.556 31.977 70.893 37.064L70.907 37.134C71.657 42.154 71.44 39.975 71.712 43.653V45.063L71.645 45.396C71.558 45.923 71.094 45.986 70.712 46.063H66.661zM35.174 51H32.686L35.261 53.574zM13.525 51H13.46L13.462 51.063zM48.446 13.974C43.268 15.899 41.535 22.146 40.106 26.92 37.955 34.083 37.46 41.57 37.187 49H48.702V14.082zM50.702 14.929V49H62.225C62.226 39.758 60.842 30.654 57.571 22.007 56.899 20.25 55.976 18.637 54.892 17.11 52.509 15.498 53.879 16.274 50.702 14.929M64.141 46.371L64.23 49H66.77zM44.094 14.757C32.068 18.613 26.036 30.928 24.38 42.694L30.686 49H35.188C35.625 37.204 36.311 24.294 44.094 14.757M38.694 15.479C24.138 19.891 13.843 33.883 13.46 49H15.525L22.36 42.164C23.908 31.499 29.066 21.001 38.694 15.48zM85.943 48.988L85.931 49H85.943zM58.412 19.532C62.775 26.947 63.322 35.752 64.041 44.094L64.247 44.063H69.712V43.653C69.627 36.357 67.191 29.327 62.541 23.665 61.305 22.16 59.789 20.91 58.413 19.532zM81.042 31.791C82.438 35.597 82.888 39.628 82.99 43.653V44.063H85.466C85.034 40.616 83.731 37.443 82.392 34.277z" fill="black"></path></g></svg></g></svg></g><g></g></svg></g><defs><mask></mask></defs></svg><rect width="331.76329731701827" height="247.2" fill="black" stroke="none" visibility="hidden"></rect></g></mask></svg><rect width="331.76329731701827" height="247.2" fill="black" stroke="none" visibility="hidden"></rect></g></mask><linearGradient x1="0" x2="1" y1="0.5" y2="0.5" id="abc4528c-4a4b-4f31-bbfc-24094a0c9cf6"><stop stop-color="#fff72e" offset="0"></stop><stop stop-color="#deae29" offset="1"></stop></linearGradient></svg><rect width="331.76329731701827" height="247.2" fill="none" stroke="none" visibility="hidden"></rect></g></svg></g></svg>